<mxfile host="app.diagrams.net" modified="2021-02-01T08:29:12.668Z" agent="5.0 (Windows)" etag="B_nhIL-LPDtoVEcbLj0k" version="14.2.9" type="github">
  <diagram id="yoRw5JMc9qJp0HHJ_bnI" name="Page-1">
    <mxGraphModel dx="1422" dy="803" grid="1" gridSize="10" guides="1" tooltips="1" connect="1" arrows="1" fold="1" page="1" pageScale="1" pageWidth="850" pageHeight="1100" math="0" shadow="0">
      <root>
        <mxCell id="0" />
        <mxCell id="1" parent="0" />
        <mxCell id="kW2QpV9E9dDX-V0TxkvZ-5" value="&lt;div&gt;Proces (beregning)&lt;/div&gt;" style="rounded=0;whiteSpace=wrap;html=1;" vertex="1" parent="1">
          <mxGeometry x="330" y="710" width="190" height="80" as="geometry" />
        </mxCell>
        <mxCell id="kW2QpV9E9dDX-V0TxkvZ-7" value="Display" style="strokeWidth=2;html=1;shape=mxgraph.flowchart.display;whiteSpace=wrap;" vertex="1" parent="1">
          <mxGeometry x="335" y="330" width="150" height="110" as="geometry" />
        </mxCell>
        <mxCell id="kW2QpV9E9dDX-V0TxkvZ-8" value="&lt;div&gt;PrÃ¦defineret proces (funktion)&lt;/div&gt;" style="verticalLabelPosition=bottom;verticalAlign=top;html=1;shape=process;whiteSpace=wrap;rounded=1;size=0.14;arcSize=6;" vertex="1" parent="1">
          <mxGeometry x="345" y="495" width="140" height="110" as="geometry" />
        </mxCell>
        <mxCell id="kW2QpV9E9dDX-V0TxkvZ-11" value="Start/slut" style="strokeWidth=2;html=1;shape=mxgraph.flowchart.start_2;whiteSpace=wrap;" vertex="1" parent="1">
          <mxGeometry x="360" y="20" width="100" height="100" as="geometry" />
        </mxCell>
        <mxCell id="kW2QpV9E9dDX-V0TxkvZ-12" value="Proces/beregning" style="rounded=1;whiteSpace=wrap;html=1;absoluteArcSize=1;arcSize=14;strokeWidth=2;" vertex="1" parent="1">
          <mxGeometry x="330" y="170" width="180" height="100" as="geometry" />
        </mxCell>
      </root>
    </mxGraphModel>
  </diagram>
</mxfile>
